<?xml version="1.0" encoding="UTF-8" standalone="no"?>
<svg width="36px" height="35px" viewBox="0 0 36 35" version="1.1" xmlns="http://www.w3.org/2000/svg" xmlns:xlink="http://www.w3.org/1999/xlink">    
    <title>hamburger menu</title>
    <desc>Created with Sketch.</desc>
    <defs></defs>
    <g id="Page-1" stroke="none" stroke-width="1" fill="none" fill-rule="evenodd">
        <g id="hmm" fill="#E6E5E5">
            <rect id="Rectangle-path" x="0" y="0" width="36" height="5"></rect>
            <rect id="Rectangle-path" x="0" y="9" width="36" height="5"></rect>
            <rect id="Rectangle-path" x="0" y="18" width="36" height="5"></rect>
            <g id="Group" transform="translate(0.000000, 26.500000)">
                <polygon id="Shape" points="0.4 0.4 3.1 0.4 4.8 4.8 6.5 0.4 9.2 0.4 9.2 7.8 7.2 7.8 7.2 3.5 5.5 7.8 4 7.8 2.4 3.5 2.4 7.8 0.4 7.8"></polygon>
                <polygon id="Shape" points="11.3 0.4 17.2 0.4 17.2 2.3 13.4 2.3 13.4 3.2 17.1 3.2 17.1 5 13.4 5 13.4 6 17.3 6 17.3 7.8 11.4 7.8 11.4 0.4"></polygon>
                <polygon id="Shape" points="19.2 0.4 21.4 0.4 24.3 4.3 24.3 0.4 26.3 0.4 26.3 7.8 24.4 7.8 21.2 3.5 21.2 7.8 19.2 7.8"></polygon>
                <path d="M28.4,4.9 L28.4,0.4 L30.5,0.4 L30.5,4.6 C30.5,5.6 30.7,6.1 32,6.1 C33.3,6.1 33.5,5.6 33.5,4.6 L33.5,0.4 L35.5,0.4 L35.5,4.9 C35.5,6.3 35.3,8 32,8 C28.7,8 28.4,6.3 28.4,4.9 L28.4,4.9 Z" id="Shape"></path>
            </g>
        </g>
    </g>
</svg>